<?xml version="1.0" encoding="UTF-8"?>
<svg xmlns="http://www.w3.org/2000/svg" xmlns:xlink="http://www.w3.org/1999/xlink" width="375pt" height="374.999991pt" viewBox="0 0 375 374.999991" version="1.2">
<defs>
<clipPath id="clip1">
  <path d="M 28.492188 31.882812 L 277 31.882812 L 277 263 L 28.492188 263 Z M 28.492188 31.882812 "/>
</clipPath>
<clipPath id="clip2">
  <path d="M 127 82 L 346.492188 82 L 346.492188 311.632812 L 127 311.632812 Z M 127 82 "/>
</clipPath>
</defs>
<g id="surface1">
<rect x="0" y="0" width="375" height="374.999991" style="fill:rgb(100%,100%,100%);fill-opacity:1;stroke:none;"/>
<rect x="0" y="0" width="375" height="374.999991" style="fill:rgb(100%,100%,100%);fill-opacity:1;stroke:none;"/>
<rect x="0" y="0" width="375" height="374.999991" style="fill:rgb(0%,50.19989%,21.569824%);fill-opacity:1;stroke:none;"/>
<g clip-path="url(#clip1)" clip-rule="nonzero">
<path style=" stroke:none;fill-rule:nonzero;fill:rgb(100%,100%,100%);fill-opacity:1;" d="M 276.800781 113.816406 C 276.800781 68.667969 240.089844 31.9375 194.96875 31.9375 L 110.320312 31.9375 C 65.199219 31.9375 28.492188 68.667969 28.492188 113.816406 L 28.492188 136.175781 C 28.492188 171.394531 50.875 202.570312 84.191406 213.753906 L 87.46875 214.855469 L 85.734375 217.84375 C 81.292969 225.511719 75.257812 237.558594 67.285156 254.671875 C 66.324219 256.722656 66.757812 259.179688 68.351562 260.789062 C 69.9375 262.375 72.464844 262.820312 74.449219 261.898438 L 170.328125 218.054688 L 194.96875 218.054688 C 240.089844 218.054688 276.800781 181.324219 276.800781 136.179688 Z M 265.941406 136.175781 C 265.941406 175.339844 234.101562 207.203125 194.96875 207.203125 L 169.148438 207.203125 C 168.375 207.203125 167.59375 207.375 166.890625 207.695312 L 83.496094 245.832031 L 87.105469 238.65625 C 90.402344 232.105469 96.367188 220.554688 99.230469 216.816406 L 99.554688 216.394531 L 100.011719 216.121094 C 101.433594 215.257812 102.371094 213.820312 102.582031 212.167969 C 102.953125 209.285156 101 206.632812 98.136719 206.125 C 64.074219 200.167969 39.347656 170.75 39.347656 136.179688 L 39.347656 113.816406 C 39.347656 74.65625 71.1875 42.792969 110.320312 42.792969 L 194.96875 42.792969 C 234.101562 42.792969 265.941406 74.652344 265.941406 113.816406 Z M 265.941406 136.175781 "/>
</g>
<path style=" stroke:none;fill-rule:nonzero;fill:rgb(100%,100%,100%);fill-opacity:1;" d="M 88.683594 111.460938 C 80.175781 111.460938 73.257812 118.378906 73.257812 126.878906 C 73.257812 135.382812 80.175781 142.300781 88.683594 142.300781 C 97.1875 142.300781 104.105469 135.382812 104.105469 126.878906 C 104.105469 118.378906 97.1875 111.460938 88.683594 111.460938 Z M 88.683594 111.460938 "/>
<path style=" stroke:none;fill-rule:nonzero;fill:rgb(100%,100%,100%);fill-opacity:1;" d="M 216.609375 111.460938 C 208.105469 111.460938 201.183594 118.378906 201.183594 126.878906 C 201.183594 135.382812 208.105469 142.300781 216.609375 142.300781 C 225.113281 142.300781 232.035156 135.382812 232.035156 126.878906 C 232.035156 118.378906 225.113281 111.460938 216.609375 111.460938 Z M 216.609375 111.460938 "/>
<path style=" stroke:none;fill-rule:nonzero;fill:rgb(100%,100%,100%);fill-opacity:1;" d="M 152.644531 111.460938 C 144.140625 111.460938 137.222656 118.378906 137.222656 126.878906 C 137.222656 135.382812 144.140625 142.300781 152.644531 142.300781 C 161.148438 142.300781 168.070312 135.382812 168.070312 126.878906 C 168.070312 118.378906 161.152344 111.460938 152.644531 111.460938 Z M 152.644531 111.460938 "/>
<g clip-path="url(#clip2)" clip-rule="nonzero">
<path style=" stroke:none;fill-rule:nonzero;fill:rgb(100%,100%,100%);fill-opacity:1;" d="M 138.46875 242.335938 L 127.292969 247.445312 C 141.546875 259.511719 159.921875 266.84375 180.011719 266.84375 L 204.652344 266.84375 L 300.53125 310.683594 C 302.519531 311.605469 305.042969 311.160156 306.628906 309.574219 C 308.226562 307.964844 308.65625 305.507812 307.695312 303.457031 C 299.726562 286.34375 293.6875 274.296875 289.246094 266.628906 L 287.515625 263.640625 L 290.789062 262.542969 C 324.105469 251.359375 346.492188 220.179688 346.492188 184.960938 L 346.492188 162.601562 C 346.492188 122.699219 317.78125 89.46875 279.96875 82.265625 C 281.417969 86.160156 282.589844 90.179688 283.5 94.300781 C 283.519531 94.308594 283.539062 94.316406 283.558594 94.320312 C 283.535156 94.316406 283.511719 94.304688 283.492188 94.300781 C 284.867188 100.585938 285.644531 107.121094 285.644531 113.832031 L 285.644531 136.191406 C 285.644531 186.207031 244.976562 226.894531 194.980469 226.894531 L 172.261719 226.894531 M 272.398438 260.953125 L 272.398438 260.949219 "/>
</g>
</g>
</svg>
